# This file uses centimeters as units for non-parametric coordinates.

mtllib Bullet.mtl
g default
v -0.000000 0.000000 -0.392168
v 0.939348 0.305213 -0.327205
v 0.799057 0.580549 -0.327205
v 0.580549 0.799057 -0.327205
v 0.305213 0.939348 -0.327205
v 0.000000 0.987689 -0.327205
v -0.305213 0.939348 -0.327205
v -0.580549 0.799057 -0.327205
v -0.799057 0.580549 -0.327205
v -0.939348 0.305213 -0.327205
v -0.987689 0.000000 -0.327205
v -0.939348 -0.305213 -0.327205
v -0.799057 -0.580549 -0.327205
v -0.580549 -0.799057 -0.327205
v -0.305213 -0.939348 -0.327205
v -0.000000 -0.987688 -0.327205
v 0.305212 -0.939348 -0.327205
v 0.580549 -0.799057 -0.327205
v 0.799057 -0.580549 -0.327205
v 0.939348 -0.305212 -0.327205
v 0.987688 0.000000 -0.327205
v 0.904509 0.293893 4.051807
v 0.769421 0.559017 4.051807
v 0.559017 0.769421 4.051807
v 0.293893 0.904509 4.051807
v 0.000000 0.951057 4.051807
v -0.293893 0.904509 4.051807
v -0.559017 0.769421 4.051807
v -0.769421 0.559017 4.051807
v -0.904509 0.293893 4.051807
v -0.951057 0.000000 4.051807
v -0.904509 -0.293893 4.051807
v -0.769421 -0.559017 4.051807
v -0.559017 -0.769421 4.051807
v -0.293893 -0.904509 4.051807
v -0.000000 -0.951057 4.051807
v 0.293893 -0.904509 4.051807
v 0.559017 -0.769421 4.051807
v 0.769421 -0.559017 4.051807
v 0.904509 -0.293893 4.051807
v 0.951057 0.000000 4.051807
v 0.847398 0.275336 4.341860
v 0.720840 0.523721 4.341860
v 0.523721 0.720840 4.341860
v 0.275336 0.847398 4.341860
v 0.000000 0.891007 4.341860
v -0.275336 0.847398 4.341860
v -0.523721 0.720840 4.341860
v -0.720840 0.523721 4.341860
v -0.847398 0.275336 4.341860
v -0.891007 0.000000 4.341860
v -0.847398 -0.275336 4.341860
v -0.720840 -0.523721 4.341860
v -0.523721 -0.720840 4.341860
v -0.275336 -0.847398 4.341860
v -0.000000 -0.891007 4.341860
v 0.275336 -0.847398 4.341860
v 0.523721 -0.720840 4.341860
v 0.720839 -0.523721 4.341860
v 0.847398 -0.275336 4.341860
v 0.891007 0.000000 4.341860
v 0.769421 0.250000 4.837703
v 0.654509 0.475529 4.837703
v 0.475529 0.654509 4.837703
v 0.250000 0.769421 4.837703
v 0.000000 0.809017 4.837703
v -0.250000 0.769421 4.837703
v -0.475528 0.654509 4.837703
v -0.654509 0.475528 4.837703
v -0.769421 0.250000 4.837703
v -0.809017 0.000000 4.837703
v -0.769421 -0.250000 4.837703
v -0.654509 -0.475528 4.837703
v -0.475528 -0.654509 4.837703
v -0.250000 -0.769421 4.837703
v -0.000000 -0.809017 4.837703
v 0.250000 -0.769421 4.837703
v 0.475528 -0.654509 4.837703
v 0.654509 -0.475528 4.837703
v 0.769421 -0.250000 4.837703
v 0.809017 0.000000 4.837703
v 0.672499 0.218508 5.325001
v 0.572062 0.415627 5.325001
v 0.415627 0.572062 5.325001
v 0.218508 0.672499 5.325001
v 0.000000 0.707107 5.325002
v -0.218508 0.672499 5.325001
v -0.415627 0.572062 5.325001
v -0.572062 0.415627 5.325001
v -0.672499 0.218508 5.325001
v -0.707107 0.000000 5.325001
v -0.672499 -0.218508 5.325001
v -0.572062 -0.415627 5.325001
v -0.415627 -0.572061 5.325001
v -0.218508 -0.672499 5.325001
v -0.000000 -0.707107 5.325001
v 0.218508 -0.672499 5.325001
v 0.415627 -0.572061 5.325001
v 0.572061 -0.415627 5.325001
v 0.672499 -0.218508 5.325001
v 0.707107 0.000000 5.325001
v 0.559017 0.181636 5.967934
v 0.475529 0.345492 5.967934
v 0.345492 0.475529 5.967934
v 0.181636 0.559017 5.967934
v 0.000000 0.587786 5.967934
v -0.181636 0.559017 5.967934
v -0.345492 0.475528 5.967934
v -0.475528 0.345492 5.967934
v -0.559017 0.181636 5.967934
v -0.587785 0.000000 5.967934
v -0.559017 -0.181636 5.967934
v -0.475528 -0.345492 5.967934
v -0.345492 -0.475528 5.967934
v -0.181636 -0.559017 5.967934
v -0.000000 -0.587785 5.967934
v 0.181636 -0.559017 5.967934
v 0.345491 -0.475528 5.967934
v 0.475528 -0.345492 5.967934
v 0.559017 -0.181636 5.967934
v 0.587785 0.000000 5.967934
v 0.431771 0.140291 6.425156
v 0.367286 0.266849 6.425156
v 0.266849 0.367286 6.425156
v 0.140291 0.431771 6.425156
v 0.000000 0.453991 6.425156
v -0.140291 0.431771 6.425156
v -0.266849 0.367286 6.425156
v -0.367286 0.266849 6.425156
v -0.431771 0.140291 6.425156
v -0.453991 0.000000 6.425156
v -0.431771 -0.140291 6.425156
v -0.367286 -0.266849 6.425156
v -0.266849 -0.367286 6.425156
v -0.140291 -0.431771 6.425156
v -0.000000 -0.453991 6.425156
v 0.140291 -0.431771 6.425156
v 0.266849 -0.367286 6.425156
v 0.367286 -0.266849 6.425156
v 0.431771 -0.140291 6.425156
v 0.453991 0.000000 6.425156
v 0.293893 0.095492 6.809955
v 0.250000 0.181636 6.809955
v 0.181636 0.250000 6.809955
v 0.095492 0.293893 6.809955
v 0.000000 0.309017 6.809955
v -0.095492 0.293893 6.809955
v -0.181636 0.250000 6.809955
v -0.250000 0.181636 6.809955
v -0.293893 0.095492 6.809955
v -0.309017 0.000000 6.809955
v -0.293893 -0.095492 6.809955
v -0.250000 -0.181636 6.809955
v -0.181636 -0.250000 6.809955
v -0.095492 -0.293893 6.809955
v -0.000000 -0.309017 6.809955
v 0.095491 -0.293893 6.809955
v 0.181636 -0.250000 6.809955
v 0.250000 -0.181636 6.809955
v 0.293893 -0.095492 6.809955
v 0.309017 0.000000 6.809955
v 0.148778 0.048341 7.241305
v 0.126558 0.091950 7.241305
v 0.091950 0.126558 7.241305
v 0.048341 0.148778 7.241306
v 0.000000 0.156435 7.241306
v -0.048341 0.148778 7.241306
v -0.091950 0.126558 7.241306
v -0.126558 0.091950 7.241306
v -0.148778 0.048341 7.241306
v -0.156435 0.000000 7.241306
v -0.148778 -0.048341 7.241306
v -0.126558 -0.091950 7.241306
v -0.091950 -0.126558 7.241306
v -0.048341 -0.148778 7.241306
v -0.000000 -0.156434 7.241306
v 0.048341 -0.148778 7.241306
v 0.091950 -0.126558 7.241306
v 0.126558 -0.091950 7.241306
v 0.148778 -0.048341 7.241306
v 0.156434 0.000000 7.241306
v 0.000000 0.000000 7.253612
vt 0.500000 0.500000
vt 0.000000 0.550000
vt 0.050000 0.550000
vt 0.100000 0.550000
vt 0.150000 0.550000
vt 0.200000 0.550000
vt 0.250000 0.550000
vt 0.300000 0.550000
vt 0.350000 0.550000
vt 0.400000 0.550000
vt 0.450000 0.550000
vt 0.500000 0.550000
vt 0.550000 0.550000
vt 0.600000 0.550000
vt 0.650000 0.550000
vt 0.700000 0.550000
vt 0.750000 0.550000
vt 0.800000 0.550000
vt 0.850000 0.550000
vt 0.900000 0.550000
vt 0.950000 0.550000
vt 1.000000 0.550000
vt 0.000000 0.600000
vt 0.050000 0.600000
vt 0.100000 0.600000
vt 0.150000 0.600000
vt 0.200000 0.600000
vt 0.250000 0.600000
vt 0.300000 0.600000
vt 0.350000 0.600000
vt 0.400000 0.600000
vt 0.450000 0.600000
vt 0.500000 0.600000
vt 0.550000 0.600000
vt 0.600000 0.600000
vt 0.650000 0.600000
vt 0.700000 0.600000
vt 0.750000 0.600000
vt 0.800000 0.600000
vt 0.850000 0.600000
vt 0.900000 0.600000
vt 0.950000 0.600000
vt 1.000000 0.600000
vt 0.000000 0.650000
vt 0.050000 0.650000
vt 0.100000 0.650000
vt 0.150000 0.650000
vt 0.200000 0.650000
vt 0.250000 0.650000
vt 0.300000 0.650000
vt 0.350000 0.650000
vt 0.400000 0.650000
vt 0.450000 0.650000
vt 0.500000 0.650000
vt 0.550000 0.650000
vt 0.600000 0.650000
vt 0.650000 0.650000
vt 0.700000 0.650000
vt 0.750000 0.650000
vt 0.800000 0.650000
vt 0.850000 0.650000
vt 0.900000 0.650000
vt 0.950000 0.650000
vt 1.000000 0.650000
vt 0.000000 0.700000
vt 0.050000 0.700000
vt 0.100000 0.700000
vt 0.150000 0.700000
vt 0.200000 0.700000
vt 0.250000 0.700000
vt 0.300000 0.700000
vt 0.350000 0.700000
vt 0.400000 0.700000
vt 0.450000 0.700000
vt 0.500000 0.700000
vt 0.550000 0.700000
vt 0.600000 0.700000
vt 0.650000 0.700000
vt 0.700000 0.700000
vt 0.750000 0.700000
vt 0.800000 0.700000
vt 0.850000 0.700000
vt 0.900000 0.700000
vt 0.950000 0.700000
vt 1.000000 0.700000
vt 0.000000 0.750000
vt 0.050000 0.750000
vt 0.100000 0.750000
vt 0.150000 0.750000
vt 0.200000 0.750000
vt 0.250000 0.750000
vt 0.300000 0.750000
vt 0.350000 0.750000
vt 0.400000 0.750000
vt 0.450000 0.750000
vt 0.500000 0.750000
vt 0.550000 0.750000
vt 0.600000 0.750000
vt 0.650000 0.750000
vt 0.700000 0.750000
vt 0.750000 0.750000
vt 0.800000 0.750000
vt 0.850000 0.750000
vt 0.900000 0.750000
vt 0.950000 0.750000
vt 1.000000 0.750000
vt 0.000000 0.800000
vt 0.050000 0.800000
vt 0.100000 0.800000
vt 0.150000 0.800000
vt 0.200000 0.800000
vt 0.250000 0.800000
vt 0.300000 0.800000
vt 0.350000 0.800000
vt 0.400000 0.800000
vt 0.450000 0.800000
vt 0.500000 0.800000
vt 0.550000 0.800000
vt 0.600000 0.800000
vt 0.650000 0.800000
vt 0.700000 0.800000
vt 0.750000 0.800000
vt 0.800000 0.800000
vt 0.850000 0.800000
vt 0.900000 0.800000
vt 0.950000 0.800000
vt 1.000000 0.800000
vt 0.000000 0.850000
vt 0.050000 0.850000
vt 0.100000 0.850000
vt 0.150000 0.850000
vt 0.200000 0.850000
vt 0.250000 0.850000
vt 0.300000 0.850000
vt 0.350000 0.850000
vt 0.400000 0.850000
vt 0.450000 0.850000
vt 0.500000 0.850000
vt 0.550000 0.850000
vt 0.600000 0.850000
vt 0.650000 0.850000
vt 0.700000 0.850000
vt 0.750000 0.850000
vt 0.800000 0.850000
vt 0.850000 0.850000
vt 0.900000 0.850000
vt 0.950000 0.850000
vt 1.000000 0.850000
vt 0.000000 0.900000
vt 0.050000 0.900000
vt 0.100000 0.900000
vt 0.150000 0.900000
vt 0.200000 0.900000
vt 0.250000 0.900000
vt 0.300000 0.900000
vt 0.350000 0.900000
vt 0.400000 0.900000
vt 0.450000 0.900000
vt 0.500000 0.900000
vt 0.550000 0.900000
vt 0.600000 0.900000
vt 0.650000 0.900000
vt 0.700000 0.900000
vt 0.750000 0.900000
vt 0.800000 0.900000
vt 0.850000 0.900000
vt 0.900000 0.900000
vt 0.950000 0.900000
vt 1.000000 0.900000
vt 0.000000 0.950000
vt 0.050000 0.950000
vt 0.100000 0.950000
vt 0.150000 0.950000
vt 0.200000 0.950000
vt 0.250000 0.950000
vt 0.300000 0.950000
vt 0.350000 0.950000
vt 0.400000 0.950000
vt 0.450000 0.950000
vt 0.500000 0.950000
vt 0.550000 0.950000
vt 0.600000 0.950000
vt 0.650000 0.950000
vt 0.700000 0.950000
vt 0.750000 0.950000
vt 0.800000 0.950000
vt 0.850000 0.950000
vt 0.900000 0.950000
vt 0.950000 0.950000
vt 1.000000 0.950000
vt 0.025000 1.000000
vt 0.075000 1.000000
vt 0.125000 1.000000
vt 0.175000 1.000000
vt 0.225000 1.000000
vt 0.275000 1.000000
vt 0.325000 1.000000
vt 0.375000 1.000000
vt 0.425000 1.000000
vt 0.475000 1.000000
vt 0.525000 1.000000
vt 0.575000 1.000000
vt 0.625000 1.000000
vt 0.675000 1.000000
vt 0.725000 1.000000
vt 0.775000 1.000000
vt 0.825000 1.000000
vt 0.875000 1.000000
vt 0.925000 1.000000
vt 0.975000 1.000000
vn 0.000000 0.000000 -1.000000
vn 0.805427 0.585177 -0.094098
vn 0.946837 0.307645 -0.094098
vn 0.585177 0.805427 -0.094098
vn 0.307646 0.946837 -0.094098
vn -0.000000 0.995563 -0.094098
vn -0.307646 0.946836 -0.094098
vn -0.585177 0.805427 -0.094098
vn -0.805428 0.585177 -0.094098
vn -0.946837 0.307646 -0.094098
vn -0.995563 -0.000000 -0.094098
vn -0.946837 -0.307646 -0.094098
vn -0.805427 -0.585177 -0.094098
vn -0.585177 -0.805427 -0.094098
vn -0.307646 -0.946837 -0.094098
vn 0.000000 -0.995563 -0.094098
vn 0.307646 -0.946837 -0.094098
vn 0.585177 -0.805427 -0.094098
vn 0.805427 -0.585177 -0.094098
vn 0.946837 -0.307646 -0.094098
vn 0.995563 -0.000001 -0.094099
vn 0.808989 0.587765 0.008365
vn 0.951024 0.309005 0.008365
vn 0.587765 0.808989 0.008365
vn 0.309006 0.951023 0.008365
vn -0.000000 0.999965 0.008365
vn -0.309006 0.951023 0.008365
vn -0.587765 0.808989 0.008365
vn -0.808989 0.587765 0.008365
vn -0.951023 0.309006 0.008365
vn -0.999965 0.000000 0.008365
vn -0.951023 -0.309006 0.008365
vn -0.808989 -0.587765 0.008365
vn -0.587765 -0.808989 0.008365
vn -0.309006 -0.951023 0.008365
vn -0.000000 -0.999965 0.008365
vn 0.309006 -0.951023 0.008365
vn 0.587765 -0.808989 0.008365
vn 0.808989 -0.587765 0.008365
vn 0.951023 -0.309006 0.008365
vn 0.999965 -0.000001 0.008365
vn 0.931307 0.302599 0.202733
vn 0.792217 0.575580 0.202733
vn 0.795958 0.578298 0.178948
vn 0.935705 0.304028 0.178948
vn 0.575579 0.792217 0.202733
vn 0.578297 0.795958 0.178948
vn 0.302600 0.931307 0.202733
vn 0.304029 0.935705 0.178948
vn -0.000000 0.979234 0.202733
vn -0.000000 0.983859 0.178948
vn -0.302600 0.931307 0.202732
vn -0.304029 0.935705 0.178948
vn -0.575580 0.792217 0.202733
vn -0.578298 0.795958 0.178948
vn -0.792217 0.575579 0.202733
vn -0.795958 0.578297 0.178948
vn -0.931307 0.302600 0.202733
vn -0.935705 0.304029 0.178948
vn -0.979234 0.000000 0.202733
vn -0.983859 0.000000 0.178948
vn -0.931307 -0.302600 0.202733
vn -0.935705 -0.304029 0.178948
vn -0.792217 -0.575580 0.202732
vn -0.795958 -0.578298 0.178948
vn -0.575579 -0.792217 0.202732
vn -0.578297 -0.795959 0.178948
vn -0.302600 -0.931307 0.202732
vn -0.304029 -0.935705 0.178948
vn 0.000000 -0.979234 0.202733
vn 0.000000 -0.983859 0.178948
vn 0.302600 -0.931307 0.202733
vn 0.304029 -0.935705 0.178948
vn 0.575579 -0.792217 0.202732
vn 0.578298 -0.795958 0.178948
vn 0.792217 -0.575579 0.202732
vn 0.795958 -0.578297 0.178948
vn 0.931307 -0.302600 0.202732
vn 0.935705 -0.304029 0.178948
vn 0.979234 -0.000001 0.202733
vn 0.983859 -0.000001 0.178948
vn 0.795461 0.577936 0.182296
vn 0.935121 0.303838 0.182296
vn 0.577936 0.795461 0.182296
vn 0.303839 0.935120 0.182296
vn -0.000000 0.983244 0.182296
vn -0.303839 0.935120 0.182296
vn -0.577936 0.795461 0.182296
vn -0.795461 0.577936 0.182296
vn -0.935120 0.303839 0.182296
vn -0.983244 0.000000 0.182296
vn -0.935120 -0.303839 0.182296
vn -0.795461 -0.577936 0.182296
vn -0.577936 -0.795461 0.182296
vn -0.303839 -0.935120 0.182296
vn -0.000000 -0.983244 0.182296
vn 0.303839 -0.935120 0.182296
vn 0.577936 -0.795461 0.182296
vn 0.795461 -0.577936 0.182296
vn 0.935120 -0.303839 0.182296
vn 0.983244 -0.000001 0.182296
vn 0.793778 0.576714 0.193177
vn 0.933143 0.303195 0.193177
vn 0.576714 0.793778 0.193177
vn 0.303196 0.933142 0.193177
vn -0.000000 0.981164 0.193177
vn -0.303197 0.933142 0.193177
vn -0.576714 0.793778 0.193177
vn -0.793778 0.576714 0.193177
vn -0.933143 0.303196 0.193177
vn -0.981164 -0.000000 0.193177
vn -0.933142 -0.303196 0.193177
vn -0.793778 -0.576714 0.193177
vn -0.576714 -0.793778 0.193177
vn -0.303196 -0.933142 0.193177
vn -0.000000 -0.981164 0.193177
vn 0.303196 -0.933142 0.193177
vn 0.576714 -0.793778 0.193177
vn 0.793778 -0.576714 0.193177
vn 0.933142 -0.303196 0.193177
vn 0.981164 -0.000001 0.193177
vn 0.789555 0.573645 0.218026
vn 0.928177 0.301582 0.218026
vn 0.573645 0.789555 0.218026
vn 0.301583 0.928177 0.218026
vn -0.000000 0.975943 0.218026
vn -0.301583 0.928177 0.218026
vn -0.573645 0.789554 0.218026
vn -0.789555 0.573645 0.218026
vn -0.928177 0.301583 0.218026
vn -0.975943 -0.000000 0.218026
vn -0.928177 -0.301583 0.218026
vn -0.789554 -0.573645 0.218026
vn -0.573645 -0.789554 0.218026
vn -0.301583 -0.928177 0.218026
vn 0.000000 -0.975943 0.218026
vn 0.301583 -0.928177 0.218026
vn 0.573645 -0.789554 0.218026
vn 0.789555 -0.573645 0.218026
vn 0.928177 -0.301583 0.218026
vn 0.975943 -0.000001 0.218026
vn 0.769751 0.559257 0.307759
vn 0.904897 0.294018 0.307759
vn 0.559256 0.769751 0.307759
vn 0.294018 0.904896 0.307759
vn -0.000000 0.951464 0.307759
vn -0.294019 0.904896 0.307759
vn -0.559257 0.769751 0.307759
vn -0.769751 0.559257 0.307759
vn -0.904896 0.294019 0.307759
vn -0.951464 -0.000000 0.307759
vn -0.904896 -0.294019 0.307759
vn -0.769751 -0.559257 0.307759
vn -0.559257 -0.769751 0.307759
vn -0.294019 -0.904896 0.307759
vn 0.000000 -0.951464 0.307759
vn 0.294019 -0.904896 0.307759
vn 0.559257 -0.769751 0.307759
vn 0.769751 -0.559257 0.307759
vn 0.904896 -0.294019 0.307759
vn 0.951464 -0.000001 0.307759
vn 0.759293 0.551660 0.345176
vn 0.892603 0.290023 0.345176
vn 0.551659 0.759293 0.345176
vn 0.290024 0.892603 0.345176
vn -0.000000 0.938538 0.345176
vn -0.290024 0.892603 0.345176
vn -0.551659 0.759293 0.345175
vn -0.759293 0.551659 0.345175
vn -0.892603 0.290025 0.345175
vn -0.938538 -0.000000 0.345176
vn -0.892603 -0.290025 0.345175
vn -0.759293 -0.551660 0.345175
vn -0.551659 -0.759294 0.345175
vn -0.290024 -0.892603 0.345175
vn 0.000000 -0.938538 0.345175
vn 0.290025 -0.892603 0.345176
vn 0.551659 -0.759293 0.345176
vn 0.759293 -0.551659 0.345175
vn 0.892603 -0.290025 0.345175
vn 0.938538 -0.000003 0.345176
vn 0.736061 0.534782 0.414997
vn 0.865293 0.281150 0.414997
vn 0.534781 0.736062 0.414996
vn 0.281151 0.865293 0.414997
vn -0.000001 0.909823 0.414996
vn -0.281151 0.865293 0.414997
vn -0.534781 0.736062 0.414996
vn -0.736062 0.534781 0.414996
vn -0.865293 0.281152 0.414997
vn -0.909823 0.000000 0.414997
vn -0.865293 -0.281152 0.414996
vn -0.736062 -0.534781 0.414997
vn -0.534781 -0.736062 0.414997
vn -0.281151 -0.865293 0.414996
vn 0.000000 -0.909823 0.414997
vn 0.281151 -0.865293 0.414997
vn 0.534781 -0.736061 0.414997
vn 0.736063 -0.534780 0.414997
vn 0.865293 -0.281152 0.414996
vn 0.909823 -0.000004 0.414997
vn 0.000001 0.000001 1.000000
s 1
g pSphere1
usemtl initialShadingGroup
f 1/1/1 3/3/2 2/2/3
f 1/1/1 4/4/4 3/3/2
f 1/1/1 5/5/5 4/4/4
f 1/1/1 6/6/6 5/5/5
f 1/1/1 7/7/7 6/6/6
f 1/1/1 8/8/8 7/7/7
f 1/1/1 9/9/9 8/8/8
f 1/1/1 10/10/10 9/9/9
f 1/1/1 11/11/11 10/10/10
f 1/1/1 12/12/12 11/11/11
f 1/1/1 13/13/13 12/12/12
f 1/1/1 14/14/14 13/13/13
f 1/1/1 15/15/15 14/14/14
f 1/1/1 16/16/16 15/15/15
f 1/1/1 17/17/17 16/16/16
f 1/1/1 18/18/18 17/17/17
f 1/1/1 19/19/19 18/18/18
f 1/1/1 20/20/20 19/19/19
f 1/1/1 21/21/21 20/20/20
f 1/1/1 2/22/3 21/21/21
f 2/2/3 3/3/2 23/24/22 22/23/23
f 3/3/2 4/4/4 24/25/24 23/24/22
f 4/4/4 5/5/5 25/26/25 24/25/24
f 5/5/5 6/6/6 26/27/26 25/26/25
f 6/6/6 7/7/7 27/28/27 26/27/26
f 7/7/7 8/8/8 28/29/28 27/28/27
f 8/8/8 9/9/9 29/30/29 28/29/28
f 9/9/9 10/10/10 30/31/30 29/30/29
f 10/10/10 11/11/11 31/32/31 30/31/30
f 11/11/11 12/12/12 32/33/32 31/32/31
f 12/12/12 13/13/13 33/34/33 32/33/32
f 13/13/13 14/14/14 34/35/34 33/34/33
f 14/14/14 15/15/15 35/36/35 34/35/34
f 15/15/15 16/16/16 36/37/36 35/36/35
f 16/16/16 17/17/17 37/38/37 36/37/36
f 17/17/17 18/18/18 38/39/38 37/38/37
f 18/18/18 19/19/19 39/40/39 38/39/38
f 19/19/19 20/20/20 40/41/40 39/40/39
f 20/20/20 21/21/21 41/42/41 40/41/40
f 21/21/21 2/22/3 22/43/23 41/42/41
s 2
f 22/23/42 23/24/43 43/45/44 42/44/45
f 23/24/43 24/25/46 44/46/47 43/45/44
f 24/25/46 25/26/48 45/47/49 44/46/47
f 25/26/48 26/27/50 46/48/51 45/47/49
f 26/27/50 27/28/52 47/49/53 46/48/51
f 27/28/52 28/29/54 48/50/55 47/49/53
f 28/29/54 29/30/56 49/51/57 48/50/55
f 29/30/56 30/31/58 50/52/59 49/51/57
f 30/31/58 31/32/60 51/53/61 50/52/59
f 31/32/60 32/33/62 52/54/63 51/53/61
f 32/33/62 33/34/64 53/55/65 52/54/63
f 33/34/64 34/35/66 54/56/67 53/55/65
f 34/35/66 35/36/68 55/57/69 54/56/67
f 35/36/68 36/37/70 56/58/71 55/57/69
f 36/37/70 37/38/72 57/59/73 56/58/71
f 37/38/72 38/39/74 58/60/75 57/59/73
f 38/39/74 39/40/76 59/61/77 58/60/75
f 39/40/76 40/41/78 60/62/79 59/61/77
f 40/41/78 41/42/80 61/63/81 60/62/79
f 41/42/80 22/43/42 42/64/45 61/63/81
f 42/44/45 43/45/44 63/66/82 62/65/83
f 43/45/44 44/46/47 64/67/84 63/66/82
f 44/46/47 45/47/49 65/68/85 64/67/84
f 45/47/49 46/48/51 66/69/86 65/68/85
f 46/48/51 47/49/53 67/70/87 66/69/86
f 47/49/53 48/50/55 68/71/88 67/70/87
f 48/50/55 49/51/57 69/72/89 68/71/88
f 49/51/57 50/52/59 70/73/90 69/72/89
f 50/52/59 51/53/61 71/74/91 70/73/90
f 51/53/61 52/54/63 72/75/92 71/74/91
f 52/54/63 53/55/65 73/76/93 72/75/92
f 53/55/65 54/56/67 74/77/94 73/76/93
f 54/56/67 55/57/69 75/78/95 74/77/94
f 55/57/69 56/58/71 76/79/96 75/78/95
f 56/58/71 57/59/73 77/80/97 76/79/96
f 57/59/73 58/60/75 78/81/98 77/80/97
f 58/60/75 59/61/77 79/82/99 78/81/98
f 59/61/77 60/62/79 80/83/100 79/82/99
f 60/62/79 61/63/81 81/84/101 80/83/100
f 61/63/81 42/64/45 62/85/83 81/84/101
f 62/65/83 63/66/82 83/87/102 82/86/103
f 63/66/82 64/67/84 84/88/104 83/87/102
f 64/67/84 65/68/85 85/89/105 84/88/104
f 65/68/85 66/69/86 86/90/106 85/89/105
f 66/69/86 67/70/87 87/91/107 86/90/106
f 67/70/87 68/71/88 88/92/108 87/91/107
f 68/71/88 69/72/89 89/93/109 88/92/108
f 69/72/89 70/73/90 90/94/110 89/93/109
f 70/73/90 71/74/91 91/95/111 90/94/110
f 71/74/91 72/75/92 92/96/112 91/95/111
f 72/75/92 73/76/93 93/97/113 92/96/112
f 73/76/93 74/77/94 94/98/114 93/97/113
f 74/77/94 75/78/95 95/99/115 94/98/114
f 75/78/95 76/79/96 96/100/116 95/99/115
f 76/79/96 77/80/97 97/101/117 96/100/116
f 77/80/97 78/81/98 98/102/118 97/101/117
f 78/81/98 79/82/99 99/103/119 98/102/118
f 79/82/99 80/83/100 100/104/120 99/103/119
f 80/83/100 81/84/101 101/105/121 100/104/120
f 81/84/101 62/85/83 82/106/103 101/105/121
f 82/86/103 83/87/102 103/108/122 102/107/123
f 83/87/102 84/88/104 104/109/124 103/108/122
f 84/88/104 85/89/105 105/110/125 104/109/124
f 85/89/105 86/90/106 106/111/126 105/110/125
f 86/90/106 87/91/107 107/112/127 106/111/126
f 87/91/107 88/92/108 108/113/128 107/112/127
f 88/92/108 89/93/109 109/114/129 108/113/128
f 89/93/109 90/94/110 110/115/130 109/114/129
f 90/94/110 91/95/111 111/116/131 110/115/130
f 91/95/111 92/96/112 112/117/132 111/116/131
f 92/96/112 93/97/113 113/118/133 112/117/132
f 93/97/113 94/98/114 114/119/134 113/118/133
f 94/98/114 95/99/115 115/120/135 114/119/134
f 95/99/115 96/100/116 116/121/136 115/120/135
f 96/100/116 97/101/117 117/122/137 116/121/136
f 97/101/117 98/102/118 118/123/138 117/122/137
f 98/102/118 99/103/119 119/124/139 118/123/138
f 99/103/119 100/104/120 120/125/140 119/124/139
f 100/104/120 101/105/121 121/126/141 120/125/140
f 101/105/121 82/106/103 102/127/123 121/126/141
f 102/107/123 103/108/122 123/129/142 122/128/143
f 103/108/122 104/109/124 124/130/144 123/129/142
f 104/109/124 105/110/125 125/131/145 124/130/144
f 105/110/125 106/111/126 126/132/146 125/131/145
f 106/111/126 107/112/127 127/133/147 126/132/146
f 107/112/127 108/113/128 128/134/148 127/133/147
f 108/113/128 109/114/129 129/135/149 128/134/148
f 109/114/129 110/115/130 130/136/150 129/135/149
f 110/115/130 111/116/131 131/137/151 130/136/150
f 111/116/131 112/117/132 132/138/152 131/137/151
f 112/117/132 113/118/133 133/139/153 132/138/152
f 113/118/133 114/119/134 134/140/154 133/139/153
f 114/119/134 115/120/135 135/141/155 134/140/154
f 115/120/135 116/121/136 136/142/156 135/141/155
f 116/121/136 117/122/137 137/143/157 136/142/156
f 117/122/137 118/123/138 138/144/158 137/143/157
f 118/123/138 119/124/139 139/145/159 138/144/158
f 119/124/139 120/125/140 140/146/160 139/145/159
f 120/125/140 121/126/141 141/147/161 140/146/160
f 121/126/141 102/127/123 122/148/143 141/147/161
f 122/128/143 123/129/142 143/150/162 142/149/163
f 123/129/142 124/130/144 144/151/164 143/150/162
f 124/130/144 125/131/145 145/152/165 144/151/164
f 125/131/145 126/132/146 146/153/166 145/152/165
f 126/132/146 127/133/147 147/154/167 146/153/166
f 127/133/147 128/134/148 148/155/168 147/154/167
f 128/134/148 129/135/149 149/156/169 148/155/168
f 129/135/149 130/136/150 150/157/170 149/156/169
f 130/136/150 131/137/151 151/158/171 150/157/170
f 131/137/151 132/138/152 152/159/172 151/158/171
f 132/138/152 133/139/153 153/160/173 152/159/172
f 133/139/153 134/140/154 154/161/174 153/160/173
f 134/140/154 135/141/155 155/162/175 154/161/174
f 135/141/155 136/142/156 156/163/176 155/162/175
f 136/142/156 137/143/157 157/164/177 156/163/176
f 137/143/157 138/144/158 158/165/178 157/164/177
f 138/144/158 139/145/159 159/166/179 158/165/178
f 139/145/159 140/146/160 160/167/180 159/166/179
f 140/146/160 141/147/161 161/168/181 160/167/180
f 141/147/161 122/148/143 142/169/163 161/168/181
f 142/149/163 143/150/162 163/171/182 162/170/183
f 143/150/162 144/151/164 164/172/184 163/171/182
f 144/151/164 145/152/165 165/173/185 164/172/184
f 145/152/165 146/153/166 166/174/186 165/173/185
f 146/153/166 147/154/167 167/175/187 166/174/186
f 147/154/167 148/155/168 168/176/188 167/175/187
f 148/155/168 149/156/169 169/177/189 168/176/188
f 149/156/169 150/157/170 170/178/190 169/177/189
f 150/157/170 151/158/171 171/179/191 170/178/190
f 151/158/171 152/159/172 172/180/192 171/179/191
f 152/159/172 153/160/173 173/181/193 172/180/192
f 153/160/173 154/161/174 174/182/194 173/181/193
f 154/161/174 155/162/175 175/183/195 174/182/194
f 155/162/175 156/163/176 176/184/196 175/183/195
f 156/163/176 157/164/177 177/185/197 176/184/196
f 157/164/177 158/165/178 178/186/198 177/185/197
f 158/165/178 159/166/179 179/187/199 178/186/198
f 159/166/179 160/167/180 180/188/200 179/187/199
f 160/167/180 161/168/181 181/189/201 180/188/200
f 161/168/181 142/169/163 162/190/183 181/189/201
f 162/170/183 163/171/182 182/191/202
f 163/171/182 164/172/184 182/192/202
f 164/172/184 165/173/185 182/193/202
f 165/173/185 166/174/186 182/194/202
f 166/174/186 167/175/187 182/195/202
f 167/175/187 168/176/188 182/196/202
f 168/176/188 169/177/189 182/197/202
f 169/177/189 170/178/190 182/198/202
f 170/178/190 171/179/191 182/199/202
f 171/179/191 172/180/192 182/200/202
f 172/180/192 173/181/193 182/201/202
f 173/181/193 174/182/194 182/202/202
f 174/182/194 175/183/195 182/203/202
f 175/183/195 176/184/196 182/204/202
f 176/184/196 177/185/197 182/205/202
f 177/185/197 178/186/198 182/206/202
f 178/186/198 179/187/199 182/207/202
f 179/187/199 180/188/200 182/208/202
f 180/188/200 181/189/201 182/209/202
f 181/189/201 162/190/183 182/210/202
